HIERARCHY
ROOT SpineBase
{
  OFFSET 0.000000 0.000000 0.000000
  CHANNELS 6 Xposition Yposition Zposition Zrotation Xrotation Yrotation
  JOINT SpineMid
  {
    OFFSET -0.000000 31.085973 0.000000
    CHANNELS 3 Zrotation Xrotation Yrotation
    JOINT SpineShoulder
    {
      OFFSET 0.016519 22.972004 -0.869754
      CHANNELS 3 Zrotation Xrotation Yrotation
      JOINT Neck
      {
        OFFSET 0.029773 7.582675 -0.624795
        CHANNELS 3 Zrotation Xrotation Yrotation
        JOINT Head
        {
          OFFSET -3.467706 14.467100 -2.815481
          CHANNELS 3 Zrotation Xrotation Yrotation
          End Site
          {
            OFFSET 0 0 0
          }
        }
      }
      JOINT ShoulderLeft
      {
        OFFSET -17.452136 -3.661845 6.748255
        CHANNELS 3 Zrotation Xrotation Yrotation
        JOINT ElbowLeft
        {
          OFFSET -5.544254 -25.578204 7.423846
          CHANNELS 3 Zrotation Xrotation Yrotation
          JOINT WristLeft
          {
            OFFSET -3.922434 -13.707932 -20.781316
            CHANNELS 3 Zrotation Xrotation Yrotation
            JOINT HandLeft
            {
              OFFSET -3.116070 -4.027730 -10.261626
              CHANNELS 3 Zrotation Xrotation Yrotation
              JOINT HandTipLeft
              {
                OFFSET -0.175472 -3.393406 -4.015518
                CHANNELS 3 Zrotation Xrotation Yrotation
                End Site
                {
                  OFFSET 0 0 0
                }
              }
              JOINT ThumbLeft
              {
                OFFSET 6.459718 2.742829 -1.420358
                CHANNELS 3 Zrotation Xrotation Yrotation
                End Site
                {
                  OFFSET 0 0 0
                }
              }
            }
          }
        }
      }
      JOINT ShoulderRight
      {
        OFFSET 14.276130 -4.762805 -6.978505
        CHANNELS 3 Zrotation Xrotation Yrotation
        JOINT ElbowRight
        {
          OFFSET 8.234279 -23.578104 0.915762
          CHANNELS 3 Zrotation Xrotation Yrotation
          JOINT WristRight
          {
            OFFSET -10.365890 -16.823641 -14.419718
            CHANNELS 3 Zrotation Xrotation Yrotation
            JOINT HandRight
            {
              OFFSET -5.502388 -3.497114 -4.652452
              CHANNELS 3 Zrotation Xrotation Yrotation
              JOINT HandTipRight
              {
                OFFSET -4.000134 -6.716655 -2.942824
                CHANNELS 3 Zrotation Xrotation Yrotation
                End Site
                {
                  OFFSET 0 0 0
                }
              }
              JOINT ThumbRight
              {
                OFFSET -2.177508 3.020940 -3.453140
                CHANNELS 3 Zrotation Xrotation Yrotation
                End Site
                {
                  OFFSET 0 0 0
                }
              }
            }
          }
        }
      }
    }
  }
  JOINT HipLeft
  {
    OFFSET -7.084462 0.538155 -1.218813
    CHANNELS 3 Zrotation Xrotation Yrotation
    JOINT KneeLeft
    {
      OFFSET -3.752386 -35.004412 9.664215
      CHANNELS 3 Zrotation Xrotation Yrotation
      JOINT AnkleLeft
      {
        OFFSET 4.270233 -37.450968 8.304047
        CHANNELS 3 Zrotation Xrotation Yrotation
        JOINT FootLeft
        {
          OFFSET -2.894348 -6.066806 -2.737504
          CHANNELS 3 Zrotation Xrotation Yrotation
          End Site
          {
            OFFSET 0 0 0
          }
        }
      }
    }
  }
  JOINT HipRight
  {
    OFFSET 7.815825 0.582310 -6.023316
    CHANNELS 3 Zrotation Xrotation Yrotation
    JOINT KneeRight
    {
      OFFSET 0.777333 -32.187761 5.089539
      CHANNELS 3 Zrotation Xrotation Yrotation
      JOINT AnkleRight
      {
        OFFSET 1.620942 -39.579977 9.869465
        CHANNELS 3 Zrotation Xrotation Yrotation
        JOINT FootRight
        {
          OFFSET -1.259609 -5.563910 -5.867774
          CHANNELS 3 Zrotation Xrotation Yrotation
          End Site
          {
            OFFSET 0 0 0
          }
        }
      }
    }
  }
}
MOTION
Frames: 11
Frame Time: 0.033333
-32.385385 77.690129 341.761427 0.160278 -6.281181 5.530526 -0.112354 0.282934 -5.509117 -0.053345 -0.071099 0.018772 13.338281 -6.416546 -0.356436 0.000000 0.000000 0.000000 -9.627346 68.021906 -12.693913 68.360517 -24.625573 0.542445 -37.054797 39.569384 -22.922315 82.365949 26.337845 -10.215519 0.000000 0.000000 0.000000 0.000000 0.000000 0.000000 6.816259 31.460416 6.918218 -34.517106 2.770014 -6.047043 -17.400374 10.135286 1.837593 -32.797250 1.634880 -2.384585 0.000000 0.000000 0.000000 0.000000 0.000000 0.000000 5.258355 11.338720 -5.704042 -10.004027 -9.893497 -3.302526 15.389755 31.136602 -17.679520 0.000000 0.000000 0.000000 6.798514 17.669366 -5.776307 -8.406798 -14.881757 -3.231128 1.813678 0.631925 2.613443 0.000000 0.000000 0.000000
-32.445994 77.668807 341.694304 0.194907 -6.412880 -3.952530 -0.175579 0.191982 3.978133 -0.153129 0.014300 0.016915 13.694176 -5.571942 -0.245454 0.000000 0.000000 0.000000 -10.388956 66.267189 -11.758110 68.091222 -23.279414 -2.696101 -55.743649 48.551916 -10.830547 91.422725 27.942699 -2.687785 0.000000 0.000000 0.000000 0.000000 0.000000 0.000000 8.490905 38.162424 8.337346 -39.073158 -4.808274 -9.932782 -15.667240 13.207386 2.054764 -32.649226 -11.272854 -5.347464 0.000000 0.000000 0.000000 0.000000 0.000000 0.000000 3.497315 9.996991 4.254809 -10.034488 -7.802661 -3.271320 15.450528 30.412587 -17.373309 0.000000 0.000000 0.000000 3.466413 20.754419 4.166202 -8.418033 -17.080833 -3.485675 2.743382 8.948071 -0.379457 0.000000 0.000000 0.000000
-32.472714 77.618252 341.626810 0.289403 -6.830716 -15.095303 -0.179784 0.004391 15.131970 -0.274816 0.223281 0.019857 14.344846 -3.504808 -0.034018 0.000000 0.000000 0.000000 -11.555789 63.841002 -10.461808 68.058765 -23.213171 -5.296942 -32.362473 38.198915 -29.333004 59.665252 37.573429 -9.121855 0.000000 0.000000 0.000000 0.000000 0.000000 0.000000 9.503929 45.285201 9.893591 -43.109719 -13.061450 -15.095586 -16.542056 14.561577 5.090634 -30.792066 -14.945954 -7.384373 0.000000 0.000000 0.000000 0.000000 0.000000 0.000000 2.053977 8.097463 15.865086 -10.014591 -4.937108 -3.193975 15.780528 28.033509 -16.447247 0.000000 0.000000 0.000000 -1.925787 24.065581 16.385396 -8.387598 -20.003090 -3.802258 5.082141 17.100371 -4.671664 0.000000 0.000000 0.000000
-32.477444 77.496770 341.574000 0.362947 -7.436052 -26.043961 -0.157177 -0.167076 26.092429 -0.323187 0.402274 0.024130 15.709838 -0.496782 0.275488 0.000000 0.000000 0.000000 -13.604009 61.143138 -8.772181 67.893197 -21.321340 -9.597384 -38.647432 29.572863 -17.416470 49.071614 46.076504 -20.200178 0.000000 0.000000 0.000000 0.000000 0.000000 0.000000 10.182371 51.098084 11.065182 -46.874763 -20.140137 -19.807833 -20.580725 17.052413 9.983401 -30.650613 -21.513857 -11.438064 0.000000 0.000000 0.000000 0.000000 0.000000 0.000000 1.482037 6.038488 27.194870 -9.921871 -1.812759 -3.089860 15.446191 23.828367 -14.104665 0.000000 0.000000 0.000000 -8.875662 26.299120 29.016344 -8.175089 -23.156362 -4.064126 8.676081 23.995961 -9.991509 0.000000 0.000000 0.000000
-32.536751 77.651898 341.425834 0.655598 -8.291915 -35.627791 -0.097164 -0.273271 35.714952 -0.310374 0.500283 0.040207 14.871155 4.542848 0.408481 0.000000 0.000000 0.000000 -15.162066 55.544180 -7.067775 65.709270 -18.996292 -16.730615 -33.282943 37.936830 -30.064059 3.380468 45.071752 14.161080 0.000000 0.000000 0.000000 0.000000 0.000000 0.000000 8.481456 56.174758 13.041585 -49.150085 -25.530495 -24.018635 -21.276151 15.535306 13.280599 -29.791664 -22.444260 -12.924856 0.000000 0.000000 0.000000 0.000000 0.000000 0.000000 1.383915 4.157834 37.110710 -9.739504 1.320101 -2.958009 14.858455 16.852957 -10.128579 0.000000 0.000000 0.000000 -15.865113 26.774688 40.304585 -8.108029 -25.472372 -4.262155 15.745574 28.541604 -18.711435 0.000000 0.000000 0.000000
-32.634831 78.022987 341.196478 1.074456 -9.272902 -43.067638 -0.014233 -0.326210 43.214044 -0.260488 0.526463 0.062545 12.147691 10.950256 0.659396 0.000000 0.000000 0.000000 -17.741202 48.950351 -5.220724 65.290294 -17.142817 -24.384207 -7.194905 6.222606 -38.998912 -61.887304 50.556720 31.362058 0.000000 0.000000 0.000000 0.000000 0.000000 0.000000 5.499164 61.310454 15.884658 -52.232907 -30.011122 -28.398656 -17.579572 9.947711 15.296300 -30.283726 -18.590293 -11.975846 0.000000 0.000000 0.000000 0.000000 0.000000 0.000000 1.397846 2.749346 44.826765 -9.467675 3.850084 -2.834560 14.852254 17.309539 -10.346150 0.000000 0.000000 0.000000 -21.380060 25.967341 48.883479 -8.274565 -26.673133 -4.437654 19.704362 27.296974 -23.068311 0.000000 0.000000 0.000000
-32.757089 78.526568 340.915749 1.590542 -10.199926 -48.037868 0.062577 -0.251744 48.257418 -0.146618 0.543514 0.089374 7.685445 16.959827 1.274404 0.000000 0.000000 0.000000 -18.820679 40.294381 -4.024577 62.908357 -13.988316 -34.260527 -1.347546 -7.110589 -30.697056 -95.050840 50.430581 47.907530 0.000000 0.000000 0.000000 0.000000 0.000000 0.000000 2.315967 64.337521 18.285577 -53.447844 -30.956368 -30.613228 -12.934621 1.312676 17.251530 -28.911803 -12.057038 -11.055808 0.000000 0.000000 0.000000 0.000000 0.000000 0.000000 1.104405 1.784509 49.998819 -9.088308 5.453334 -2.727456 14.364723 13.018864 -7.790295 0.000000 0.000000 0.000000 -25.435132 25.155550 54.576980 -8.530109 -27.685323 -4.600433 18.972459 21.369017 -21.607908 0.000000 0.000000 0.000000
-32.898979 79.120742 340.605527 2.143391 -10.942806 -50.937886 0.139529 -0.099752 51.234055 -0.002695 0.519301 0.117834 1.695441 21.692613 2.323494 0.000000 0.000000 0.000000 -18.392611 32.174048 -3.259630 59.426941 -11.596868 -42.581279 -1.437478 -4.888125 -35.058384 -103.035670 38.522640 49.237050 0.000000 0.000000 0.000000 0.000000 0.000000 0.000000 -3.879512 67.412379 23.114985 -53.408497 -38.675470 -35.010311 -7.625657 -9.354934 25.609847 -23.235172 -1.841621 -13.572485 0.000000 0.000000 0.000000 0.000000 0.000000 0.000000 0.427616 1.192661 53.023182 -8.756155 6.109637 -2.656709 12.103613 17.320995 -8.528259 0.000000 0.000000 0.000000 -27.583694 24.369465 57.717380 -8.921068 -27.941551 -4.734587 20.306441 21.259742 -23.254129 0.000000 0.000000 0.000000
-33.050433 79.710343 340.302008 2.609495 -11.452730 -53.767305 0.116430 -0.019142 54.133894 0.035271 0.449764 0.140107 -3.306053 25.182403 3.556516 0.000000 0.000000 0.000000 -16.746587 26.548704 -2.717254 55.670308 -10.067573 -47.908719 -6.349474 14.659041 -51.155031 -89.919167 15.027097 37.002677 0.000000 0.000000 0.000000 0.000000 0.000000 0.000000 -11.127744 70.318723 29.494387 -54.545644 -42.322845 -39.048691 -0.085526 -18.038378 31.322624 -17.433069 12.525708 -18.002706 0.000000 0.000000 0.000000 0.000000 0.000000 0.000000 0.250664 0.554794 56.013706 -8.627635 6.891315 -2.619071 11.460284 17.416487 -8.115730 0.000000 0.000000 0.000000 -29.941668 23.954614 60.941301 -9.773953 -28.983903 -5.174626 19.318159 14.463403 -21.102497 0.000000 0.000000 0.000000
-33.245956 80.452947 339.910218 2.955703 -11.682606 -56.322729 -0.013806 0.012439 56.743256 0.011973 0.321658 0.156389 -7.679534 27.309136 4.735410 0.000000 0.000000 0.000000 -15.912811 22.181324 -2.217060 53.399654 -9.805230 -51.443652 -9.281936 16.032181 -48.182569 -87.203522 23.831342 38.408764 0.000000 0.000000 0.000000 0.000000 0.000000 0.000000 -19.716464 72.175296 37.231586 -54.460346 -41.566943 -41.051315 6.392865 -26.038824 35.547064 -14.097511 25.331960 -21.687178 0.000000 0.000000 0.000000 0.000000 0.000000 0.000000 0.635030 -0.125317 58.757117 -8.536861 7.919139 -2.582506 11.031636 16.857072 -7.630649 0.000000 0.000000 0.000000 -31.255266 23.080675 63.520570 -10.453677 -29.230153 -5.467126 16.700197 9.571547 -17.228568 0.000000 0.000000 0.000000
-33.358104 80.794440 339.721415 3.088573 -11.635603 -57.731678 -0.177825 0.031925 58.169864 -0.010387 0.133785 0.164379 -10.571282 27.897401 5.407715 0.000000 0.000000 0.000000 -11.368450 17.469825 -1.594902 48.082635 -2.638826 -56.056598 -15.516620 49.676614 -58.150103 -49.372173 -7.973413 31.860420 0.000000 0.000000 0.000000 0.000000 0.000000 0.000000 -28.287573 73.087851 45.076605 -53.230566 -36.469088 -40.846440 9.983220 -29.921187 30.606998 -16.674171 36.227439 -17.213188 0.000000 0.000000 0.000000 0.000000 0.000000 0.000000 0.914421 -0.634035 60.228322 -8.284489 8.471436 -2.528691 11.076070 15.532899 -7.104518 0.000000 0.000000 0.000000 -30.323222 21.844945 64.381284 -10.761379 -27.555112 -5.421432 14.191351 3.991404 -13.052267 0.000000 0.000000 0.000000
